<svg width="20" height="14" viewBox="0 0 20 14" xmlns="http://www.w3.org/2000/svg"><path d="M18.8917 11.6667c.612 0 1.1083.4962 1.1083 1.1083v.1167C20 13.5037 19.5038 14 18.8917 14H1.1083C.4963 14 0 13.5038 0 12.8917v-.1167c0-.6121.4962-1.1083 1.1083-1.1083h17.7834zm0-5.8334c.612 0 1.1083.4963 1.1083 1.1084v.1166c0 .6121-.4962 1.1084-1.1083 1.1084H1.1083C.4963 8.1667 0 7.6704 0 7.0583v-.1166c0-.6121.4962-1.1084 1.1083-1.1084h17.7834zm0-5.8333C19.5037 0 20 .4962 20 1.1083v.1167c0 .6121-.4962 1.1083-1.1083 1.1083H1.1083C.4963 2.3333 0 1.8371 0 1.225v-.1167C0 .4963.4962 0 1.1083 0h17.7834z" fill="currentColor" fill-rule="evenodd"/></svg>