<svg xmlns="http://www.w3.org/2000/svg" width="14" height="18" viewBox="0 0 14 18" fill="currentColor"><path d="M5.625 11.36250024l-2.24375-2.24375-.88125.88125 3.125 3.125 5.625-5.630625-.88125-.88125-4.74375 4.749375zm6.9445625-9.4875H10.625v-.6945625C10.624311.5287857 10.0962145.0006892 9.4445625 2.4e-7h-5.139125C3.65378546.0006892 3.12568896.5287857 3.125 1.18043774v.6945625H1.1804375C.52878546 1.8756892.00068896 2.4037857 0 3.05543774v13.264125c.00068896.651652.52878546 1.1797485 1.1804375 1.1804375h11.389125c.651652-.000689 1.1797485-.5287855 1.1804375-1.1804375v-13.264125c-.000689-.65165204-.5287855-1.17974854-1.1804375-1.1804375zm-8.1945625-.625h5v2.5h-5v-2.5zm8.125 15H1.25v-13.125h1.875v1.875h7.5v-1.875H12.5v13.125z"/></svg>
