<svg width="32" height="32" viewBox="0 0 32 32" xmlns="http://www.w3.org/2000/svg">
<g clip-path="url(#clip0_1501_48946)">
<path d="M23 30L21.6 28.6L24.2 26L15 26L15 24L24.2 24L21.6 21.4L23 20L28 25L23 30Z"/>
<path d="M22 15H14V17H22V15Z"/>
<path d="M22 8H14V10H22V8Z"/>
<path d="M13 28H8V24H10V22H8V17H10V15H8V10H10V8H8V4H26V20H28V4C28 2.9 27.1 2 26 2H8C6.9 2 6 2.9 6 4V8H4V10H6V15H4V17H6V22H4V24H6V28C6 29.1 6.9 30 8 30H13V28Z"/>
</g>
<defs>
<clipPath id="clip0_1501_48946">
<rect width="32" height="32"/>
</clipPath>
</defs>
<style>.cls-1{fill:none;}</style>
</svg>
