<svg xmlns="http://www.w3.org/2000/svg" width="20" height="20" viewBox="0 0 20 20"><path d="M17.5 3.75v12.5h-15V3.75h15zm0-1.25h-15c-.6904 0-1.25.5596-1.25 1.25v12.5c0 .6904.5596 1.25 1.25 1.25h15c.6904 0 1.25-.5596 1.25-1.25V3.75c0-.6904-.5596-1.25-1.25-1.25zM3.75 6.25h4.375V7.5H3.75V6.25zm0 2.5h2.5V10h-2.5V8.75zm10.625 2.5h-3.75c-1.0355 0-1.875.8395-1.875 1.875v1.25H10v-1.25a.625.625 0 01.625-.625h3.75a.625.625 0 01.625.625v1.25h1.25v-1.25c0-1.0355-.8395-1.875-1.875-1.875zm-1.875-.625c1.3807 0 2.5-1.1193 2.5-2.5s-1.1193-2.5-2.5-2.5-2.5 1.1193-2.5 2.5 1.1193 2.5 2.5 2.5zm0-3.75c.6904 0 1.25.5596 1.25 1.25s-.5596 1.25-1.25 1.25-1.25-.5596-1.25-1.25.5596-1.25 1.25-1.25z" fill="currentColor" fill-rule="evenodd"/></svg>