<svg xmlns="http://www.w3.org/2000/svg" xmlns:xlink="http://www.w3.org/1999/xlink" version="1.1" x="0px" y="0px" viewBox="0 0 100 100" enable-background="new 0 0 100 100" xml:space="preserve"><path d="M24.001,70.4h4.827l-5.2,3.731l0.676,10.229h-2.549L19.64,73.617L24.001,70.4z M48.255,70.325l-1.546,2.741l2.731,11.293  h2.524l-2.664-14.218C48.956,70.218,48.609,70.283,48.255,70.325z M94.269,34.913l-7.706-11.44c-0.633-0.919-1.489-1.1-2.637-0.879  l-0.773-1.737c-0.498-1.118,0.039-2.425,1.179-2.871l5.994-2.345h-7.852c-2.938,0-4.916,3.006-3.754,5.704l0.891,2.069l-0.525,0.089  l-2.383-1.512c-0.746-0.474-1.612-0.725-2.496-0.725h-2.865l3.138,3.017l-8.051,1.358H10.625C7.523,25.641,5,28.164,5,31.266v27.891  h2.813V31.266c0-1.551,1.262-2.813,2.813-2.813v22.3c1.113-1.573,2.629-2.874,4.464-3.752c1.536-0.735,3.244-1.107,5.076-1.107  h21.52c1.048,0,2.037-0.509,2.645-1.362l1.779-2.492l-0.884-1.325l-2.186-3.279h3.941h7.18c2.421,0,4.76,0.874,6.588,2.462  l4.514,3.922c1.168,1.015,1.76,2.504,1.583,3.984c-0.272,2.278-2.202,3.996-4.49,3.996h-2.7l-1.801,7.924l1.208,2.481l1.483,14.062  h3.516V55.052c3.083-0.453,5.846-2.238,7.507-4.936l7.279-11.823l5.625,1.406l4.536,0.007l1.626,0.43  c1.335,0.445,2.806-0.001,3.669-1.114C95.245,37.81,95.23,36.11,94.269,34.913z M64.751,47.553c0.097-0.809-0.257-1.607-0.872-2.142  l-4.514-3.922c-1.444-1.254-3.292-1.945-5.204-1.945h-7.18l1.691,2.536l-2.624,3.677c-1.006,1.409-2.631,2.246-4.362,2.246h-21.52  c-1.437,0-2.87,0.281-4.166,0.901c-3.345,1.6-5.361,4.923-5.361,8.477v0.079c0,0.937,0.76,1.697,1.697,1.697V66.6l-1.71,2.536  l2.219,15.223l2.545-0.005V74.131l7.919-5.84h14.036l2.626,5.797l1.242,10.272l2.461-0.008V74.157l3.309-5.866  c3.956,0,7.386-2.738,8.263-6.596l2.728-12.005h4.384C63.558,49.69,64.602,48.799,64.751,47.553z"/></svg>
