<svg xmlns="http://www.w3.org/2000/svg" width="20" height="20" viewBox="0 0 20 20"><path d="M15 13.125h1.25v3.125H15v-3.125zM12.5 10h1.25v6.25H12.5V10zm-5.625 6.25c-1.725-.002-3.123-1.4-3.125-3.125H5C5 14.1605 5.8395 15 6.875 15c1.0355 0 1.875-.8395 1.875-1.875 0-1.0355-.8395-1.875-1.875-1.875V10C8.6009 10 10 11.3991 10 13.125S8.6009 16.25 6.875 16.25zm10.625-15h-15c-.69.0007-1.2493.56-1.25 1.25v15c.0007.69.56 1.2493 1.25 1.25h15c.69-.001 1.249-.56 1.25-1.25v-15c-.0007-.69-.56-1.2493-1.25-1.25zm0 5.625H8.75V2.5h8.75v4.375zM7.5 2.5v4.375h-5V2.5h5zm-5 15V8.125h15l.0012 9.375H2.5z" fill="currentColor" fill-rule="evenodd"/></svg>