<svg width="16" height="16" viewBox="0 0 16 16" xmlns="http://www.w3.org/2000/svg"><path d="M8 8c1.7673 0 3.2 1.4327 3.2 3.2v2.4H4.8v-2.4C4.8 9.4327 6.2327 8 8 8zm6.2685 1.304A2.404 2.404 0 0115.2 11.2v2.4h-2.4v-2.4a4.7776 4.7776 0 00-.6-2.3248 2.404 2.404 0 012.0685.4287zM3.8 8.8751A4.7784 4.7784 0 003.2 11.2v2.4H.8v-2.4a2.4 2.4 0 013-2.3248zM12.8 4c.8837 0 1.6.7163 1.6 1.6s-.7163 1.6-1.6 1.6-1.6-.7163-1.6-1.6.7163-1.6 1.6-1.6zM3.2 4c.8837 0 1.6.7163 1.6 1.6s-.7163 1.6-1.6 1.6-1.6-.7163-1.6-1.6S2.3163 4 3.2 4zM8 1.6c1.3255 0 2.4 1.0745 2.4 2.4S9.3255 6.4 8 6.4 5.6 5.3255 5.6 4 6.6745 1.6 8 1.6z" fill="currentColor" fill-rule="nonzero"/></svg>