<svg width="72" height="72" viewBox="0 0 72 72" xmlns="http://www.w3.org/2000/svg">
  <g fill="none" fill-rule="evenodd">
    <path d="M64.7505 6h-44.001C19.231 6 18 7.231 18 8.7495V21l25.5 7.5 24-7.5V8.7495C67.5 7.231 66.269 6 64.7505 6z" fill="#41A5EE" fill-rule="nonzero"/>
    <path fill="#2B7CD3" fill-rule="nonzero" d="M67.5 21H18v15l25.5 4.5 24-4.5z"/>
    <path fill="#185ABD" fill-rule="nonzero" d="M18 36v15l24 3 25.5-3V36z"/>
    <path d="M20.7495 66h44.001C66.269 66 67.5 64.769 67.5 63.2505V51H18v12.2505C18 64.769 19.231 66 20.7495 66z" fill="#103F91" fill-rule="nonzero"/>
    <path d="M0 0h72v72H0z"/>
    <path d="M36.2505 18H18v37.5h18.2505c1.5165-.005 2.7446-1.233 2.7495-2.7495v-32.001c-.005-1.5165-1.233-2.7446-2.7495-2.7495z" fill="#000" fill-rule="nonzero" opacity=".1"/>
    <path d="M34.7505 19.5H18V57h16.7505c1.5165-.005 2.7446-1.233 2.7495-2.7495v-32.001c-.005-1.5165-1.233-2.7446-2.7495-2.7495z" fill="#000" fill-rule="nonzero" opacity=".2"/>
    <path d="M34.7505 19.5H18V54h16.7505c1.5165-.005 2.7446-1.233 2.7495-2.7495v-29.001c-.005-1.5165-1.233-2.7446-2.7495-2.7495z" fill="#000" fill-rule="nonzero" opacity=".2"/>
    <path d="M33.2505 19.5H18V54h15.2505c1.5165-.005 2.7446-1.233 2.7495-2.7495v-29.001c-.005-1.5165-1.233-2.7446-2.7495-2.7495z" fill="#000" fill-rule="nonzero" opacity=".2"/>
    <rect fill="#1A5DBE" fill-rule="nonzero" x="3" y="19.5" width="33" height="33" rx="2.7495"/>
    <path d="M14.283 40.587c.054.4245.09.7935.1065 1.11h.063c.024-.3.074-.6615.15-1.0845.076-.423.1445-.7805.2055-1.0725L17.7 27.063h3.7395l3 12.2895c.1743.7642.299 1.5388.3735 2.319h.0495c.056-.7559.1601-1.5074.312-2.25L27.567 27.057h3.4035l-4.203 17.88H22.791l-2.85-11.841c-.0825-.3405-.177-.786-.2805-1.3335-.1035-.5475-.168-.948-.1935-1.2h-.0495c-.033.291-.0975.723-.1935 1.296-.096.573-.173.997-.231 1.272L16.314 44.934H12.27L8.0445 27.063h3.465l2.6055 12.5025c.0585.2565.114.5985.168 1.0215z" fill="#FFF" fill-rule="nonzero"/>
  </g>
</svg>
