<svg width="72" height="72" viewBox="0 0 72 72" xmlns="http://www.w3.org/2000/svg">
  <g fill="none" fill-rule="evenodd">
    <g fill-rule="nonzero">
      <path d="M62 37.5a1.4402 1.4402 0 00-.687-1.2375h-.0075l-.027-.015-22.35-13.23a3.039 3.039 0 00-.3-.1785 3 3 0 00-2.751 0 3.039 3.039 0 00-.3.1785l-22.35 13.23-.027.015a1.457 1.457 0 00-.6874 1.257c.0072.5105.281.98.7219 1.2375l22.35 13.23c.0968.0647.197.1242.3.1785a3 3 0 002.751 0 3.3615 3.3615 0 00.3-.1785l22.35-13.23A1.4387 1.4387 0 0062 37.5z" fill="#0A2767"/>
      <path d="M15.833 28.6665H30.5V42.111H15.833V28.6665zM59 15V8.85c.0352-1.5377-1.1819-2.8132-2.7195-2.85h-38.061c-1.5376.0368-2.7547 1.3123-2.7195 2.85V15L38 21l21-6z" fill="#0364B8"/>
      <path fill="#0078D4" d="M15.5 15h15v13.5h-15z"/>
      <path fill="#28A8EA" d="M45.5 15h-15v13.5l15 13.5H59V28.5z"/>
      <path fill="#0078D4" d="M30.5 28.5h15V42h-15z"/>
      <path fill="#0364B8" d="M30.5 42h15v13.5h-15z"/>
      <path fill="#14447D" d="M15.833 42.111H30.5v12.222H15.833z"/>
      <path fill="#0078D4" d="M45.5 42H59v13.5H45.5z"/>
      <path d="M50.313 32.6745l-.0285.015-22.35 12.57c-.0975.06-.1965.117-.3.168a3.1155 3.1155 0 01-1.212.3l-1.221-.714a3.0495 3.0495 0 01-.3-.1725l-22.65-12.927H2.241L1.5 31.5v25.446c.0116 1.6977 1.3968 3.0648 3.0945 3.054h43.359c.0255 0 .048-.012.075-.012a3.7965 3.7965 0 001.05-.219c.146-.0619.287-.135.4215-.219.1005-.057.273-.1815.273-.1815A3.0285 3.0285 0 0051 56.946V31.5a1.35 1.35 0 01-.687 1.1745z" fill="#2FB0EE" transform="translate(11 6)"/>
      <path d="M60.8 37.3995v1.56L37.43 55.05 13.235 37.9245a.015.015 0 00-.015-.015L11 36.5745v-1.125l.915-.015 1.935 1.11.045.015.165.105s22.74 12.975 22.8 13.005l.87.51c.075-.03.15-.06.24-.09.045-.03 22.575-12.705 22.575-12.705l.255.015z" fill="#0A2767" opacity=".5"/>
      <path d="M61.313 38.6745l-.0285.0165-22.35 12.57c-.0975.06-.1965.117-.3.168-.868.424-1.883.424-2.751 0a3.396 3.396 0 01-.3-.168l-22.35-12.57-.027-.0165A1.35 1.35 0 0112.5 37.5v25.446A3.0735 3.0735 0 0015.593 66h43.314A3.0738 3.0738 0 0062 62.946V37.5a1.35 1.35 0 01-.687 1.1745z" fill="#1490DF"/>
      <path d="M39.26 51.075l-.3345.1875a3.2745 3.2745 0 01-.3.1695 3.1065 3.1065 0 01-1.179.312L45.95 61.8l14.8335 3.5745A3.057 3.057 0 0061.724 64.2L39.26 51.075z" fill="#000" opacity=".1"/>
      <path d="M40.775 50.223l-1.8495 1.0395a3.2745 3.2745 0 01-.3.1695 3.1065 3.1065 0 01-1.179.312l3.984 10.9845L60.788 65.37A3.033 3.033 0 0062 62.946v-.3285L40.775 50.223z" fill="#000" opacity=".05"/>
      <path d="M15.635 66h43.2675a3.1113 3.1113 0 001.8525-.6L36.2 51.0165a3.0495 3.0495 0 01-.3-.1725L13.25 37.917h-.0105L12.5 37.5v25.359A3.138 3.138 0 0015.635 66z" fill="#28A8EA"/>
      <path fill="#50D9FF" d="M45.5 15H59v13.5H45.5z"/>
    </g>
    <path d="M0 0h72v72H0z"/>
  </g>
</svg>
