<svg width="72" height="72" viewBox="0 0 72 72" xmlns="http://www.w3.org/2000/svg">
  <g fill="none" fill-rule="evenodd">
    <path d="M67.5 37.5a1.4402 1.4402 0 00-.687-1.2375h-.0075l-.027-.015-22.35-13.23a3.039 3.039 0 00-.3-.1785 3 3 0 00-2.751 0 3.039 3.039 0 00-.3.1785l-22.35 13.23-.027.015a1.457 1.457 0 00-.6874 1.257c.0072.5105.281.98.7219 1.2375l22.35 13.23c.0968.0647.197.1242.3.1785a3 3 0 002.751 0 3.3615 3.3615 0 00.3-.1785l22.35-13.23A1.4387 1.4387 0 0067.5 37.5z" fill="#0A2767" fill-rule="nonzero"/>
    <path d="M21.333 28.6665H36V42.111H21.333V28.6665zM64.5 15V8.85c.0352-1.5377-1.1819-2.8132-2.7195-2.85h-38.061C22.1819 6.0368 20.9648 7.3123 21 8.85V15l22.5 6 21-6z" fill="#0364B8" fill-rule="nonzero"/>
    <path fill="#0078D4" fill-rule="nonzero" d="M21 15h15v13.5H21z"/>
    <path fill="#28A8EA" fill-rule="nonzero" d="M51 15H36v13.5L51 42h13.5V28.5z"/>
    <path fill="#0078D4" fill-rule="nonzero" d="M36 28.5h15V42H36z"/>
    <path fill="#0364B8" fill-rule="nonzero" d="M36 42h15v13.5H36z"/>
    <path fill="#14447D" fill-rule="nonzero" d="M21.333 42.111H36v12.222H21.333z"/>
    <path fill="#0078D4" fill-rule="nonzero" d="M51 42h13.5v13.5H51z"/>
    <path d="M66.813 38.6745l-.0285.015-22.35 12.57c-.0975.06-.1965.117-.3.168a3.1155 3.1155 0 01-1.212.3l-1.221-.714a3.0495 3.0495 0 01-.3-.1725l-22.65-12.927h-.0105L18 37.5v25.446c.0116 1.6977 1.3968 3.0648 3.0945 3.054h43.359c.0255 0 .048-.012.075-.012a3.7965 3.7965 0 001.05-.219c.146-.0619.287-.135.4215-.219.1005-.057.273-.1815.273-.1815A3.0285 3.0285 0 0067.5 62.946V37.5a1.35 1.35 0 01-.687 1.1745z" fill="#2FB0EE" fill-rule="nonzero"/>
    <path d="M66.3 37.3995v1.56L42.93 55.05 18.735 37.9245a.015.015 0 00-.015-.015l-2.22-1.335v-1.125l.915-.015 1.935 1.11.045.015.165.105s22.74 12.975 22.8 13.005l.87.51c.075-.03.15-.06.24-.09.045-.03 22.575-12.705 22.575-12.705l.255.015z" fill="#0A2767" fill-rule="nonzero" opacity=".5"/>
    <path d="M0 0h72v72H0z"/>
    <path d="M66.813 38.6745l-.0285.0165-22.35 12.57c-.0975.06-.1965.117-.3.168-.868.424-1.883.424-2.751 0a3.396 3.396 0 01-.3-.168l-22.35-12.57-.027-.0165A1.35 1.35 0 0118 37.5v25.446A3.0735 3.0735 0 0021.093 66h43.314a3.0738 3.0738 0 003.093-3.054V37.5a1.35 1.35 0 01-.687 1.1745z" fill="#1490DF" fill-rule="nonzero"/>
    <path d="M44.76 51.075l-.3345.1875a3.2745 3.2745 0 01-.3.1695 3.1065 3.1065 0 01-1.179.312L51.45 61.8l14.8335 3.5745A3.057 3.057 0 0067.224 64.2L44.76 51.075z" fill="#000" fill-rule="nonzero" opacity=".1"/>
    <path d="M46.275 50.223l-1.8495 1.0395a3.2745 3.2745 0 01-.3.1695 3.1065 3.1065 0 01-1.179.312l3.984 10.9845L66.288 65.37a3.033 3.033 0 001.212-2.424v-.3285L46.275 50.223z" fill="#000" fill-rule="nonzero" opacity=".05"/>
    <path d="M21.135 66h43.2675a3.1113 3.1113 0 001.8525-.6L41.7 51.0165a3.0495 3.0495 0 01-.3-.1725L18.75 37.917h-.0105L18 37.5v25.359A3.138 3.138 0 0021.135 66z" fill="#28A8EA" fill-rule="nonzero"/>
    <path d="M39 20.7495v31.995a2.757 2.757 0 01-1.725 2.55 2.5833 2.5833 0 01-1.02.21H18V19.5h3V18h15.255c1.5154.0058 2.7417 1.2341 2.745 2.7495z" fill="#000" fill-rule="nonzero" opacity=".1"/>
    <path d="M37.5001 22.2495v31.995a2.4456 2.4456 0 01-.2251 1.05A2.733 2.733 0 0134.755 57H18V19.4999h16.755A2.52 2.52 0 0136 19.815a2.7274 2.7274 0 011.5001 2.4345z" fill="#000" fill-rule="nonzero" opacity=".2"/>
    <path d="M37.5 22.2495v28.995c-.0073 1.5147-1.2304 2.7424-2.745 2.7555H18V19.4999h16.755A2.52 2.52 0 0136 19.815a2.727 2.727 0 011.5 2.4345z" fill="#000" fill-rule="nonzero" opacity=".2"/>
    <path d="M36 22.2495v28.995c-.0016 1.517-1.228 2.748-2.745 2.7555H18V19.5h15.255A2.7465 2.7465 0 0136 22.2495z" fill="#000" fill-rule="nonzero" opacity=".2"/>
    <rect fill="#107AD5" fill-rule="nonzero" x="3" y="19.5" width="33" height="33" rx="2.7495"/>
    <path fill="#50D9FF" fill-rule="nonzero" d="M51 15h13.5v13.5H51z"/>
    <g fill="#FFF" fill-rule="nonzero">
      <path d="M19.25 46C15.8033 46 13 43.1967 13 39.75V31a.833.833 0 01.8333-.8333c.46 0 .8334.3725.8334.8333v8.75c0 2.5267 2.0558 4.5833 4.5833 4.5833 2.5275 0 4.5833-2.0566 4.5833-4.5833v-9.1667c0-1.6083-1.3083-2.9166-2.9166-2.9166-1.6084 0-2.9167 1.3083-2.9167 2.9166v8.3334c0 .6891.5608 1.25 1.25 1.25s1.25-.5609 1.25-1.25V31a.833.833 0 01.8333-.8333c.46 0 .8334.3725.8334.8333v7.9167c0 1.6083-1.3084 2.9166-2.9167 2.9166s-2.9167-1.3083-2.9167-2.9166v-8.3334c0-2.5266 2.0558-4.5833 4.5834-4.5833 2.5275 0 4.5833 2.0567 4.5833 4.5833V39.75c0 3.4467-2.8033 6.25-6.25 6.25z"/>
    </g>
  </g>
</svg>
