<svg width="72" height="72" viewBox="0 0 72 72" xmlns="http://www.w3.org/2000/svg">
  <g fill="none" fill-rule="evenodd">
    <path d="M0 0h72v72H0z"/>
    <path d="M60.5 63.2505C60.5 64.769 59.269 66 57.7505 66h-44.001C12.231 66 11 64.769 11 63.2505V8.7495C11 7.231 12.231 6 13.7495 6h44.001C59.269 6 60.5 7.231 60.5 8.7495z" fill="#A30A00" fill-rule="nonzero"/>
    <path d="M51.3308 39.409c-2.3866-2.5278-8.9872-1.4995-10.5352-1.2424-2.279-2.2066-3.87-4.8202-4.4076-5.7842.86-2.4422 1.419-5.0344 1.505-7.5837 0-2.3137-.9245-4.7987-3.5045-4.7987-.903.0214-1.72.5141-2.1716 1.264-1.0965 1.8852-.6665 5.7841 1.0966 9.726-1.032 2.892-2.5156 7.0695-4.4721 10.4543-2.6446 1.0497-8.2562 3.6204-8.7937 6.4697-.172.8355.129 1.6924.774 2.2708.6235.557 1.4406.8355 2.279.814 3.3756 0 6.7512-4.6701 9.0302-8.6762 1.9136-.6641 4.9666-1.5424 8.0412-2.0994 3.569 3.1063 6.7511 3.5776 8.3636 3.5776 2.193 0 3.01-.9426 3.3111-1.7353.3225-.8997.129-1.928-.516-2.6564zm-2.322 1.6282c-.1076.6213-.903 1.2426-2.3866.9212-1.72-.4284-3.3326-1.2425-4.687-2.3565 1.161-.1928 3.87-.4499 5.7835-.0857.688.1285 1.4835.5142 1.29 1.521zM33.6144 22.078c.1505-.2785.43-.4713.7525-.4713.817 0 .989.9855.989 1.7995-.1075 1.9495-.5375 3.9418-1.075 5.72-1.376-3.642-1.1825-6.1698-.6665-7.0482zm-.1935 17.8024c.731-1.4353 1.763-4.049 2.1285-5.0986.817 1.3496 2.193 3.042 2.924 3.8132.0216-.0214-2.795.557-5.0525 1.2854zm-5.3966 3.6847c-2.1716 3.4705-4.3001 5.6557-5.5471 5.6557-.1935 0-.4085-.0643-.559-.1928-.2366-.1929-.344-.4928-.2796-.7927.2365-1.2425 2.709-3.042 6.3857-4.6702z" fill="#FFF" fill-rule="nonzero"/>
  </g>
</svg>
