<svg width="72" height="72" viewBox="0 0 72 72" xmlns="http://www.w3.org/2000/svg">
  <g fill="none" fill-rule="evenodd">
    <path d="M43.5 34.5L18 30v33.2505C18 64.769 19.231 66 20.7495 66h44.001C66.269 66 67.5 64.769 67.5 63.2505V51l-24-16.5z" fill="#185C37" fill-rule="nonzero"/>
    <path d="M43.5 6H20.7495C19.231 6 18 7.231 18 8.7495V21l25.5 15L57 40.5 67.5 36V21l-24-15z" fill="#21A366" fill-rule="nonzero"/>
    <path fill="#107C41" fill-rule="nonzero" d="M18 21h25.5v15H18z"/>
    <path d="M0 0h72v72H0z"/>
    <path d="M36.2505 18H18v37.5h18.2505c1.5165-.005 2.7446-1.233 2.7495-2.7495v-32.001c-.005-1.5165-1.233-2.7446-2.7495-2.7495z" fill="#000" fill-rule="nonzero" opacity=".1"/>
    <path d="M34.7505 19.5H18V57h16.7505c1.5165-.005 2.7446-1.233 2.7495-2.7495v-32.001c-.005-1.5165-1.233-2.7446-2.7495-2.7495z" fill="#000" fill-rule="nonzero" opacity=".2"/>
    <path d="M34.7505 19.5H18V54h16.7505c1.5165-.005 2.7446-1.233 2.7495-2.7495v-29.001c-.005-1.5165-1.233-2.7446-2.7495-2.7495z" fill="#000" fill-rule="nonzero" opacity=".2"/>
    <path d="M33.2505 19.5H18V54h15.2505c1.5165-.005 2.7446-1.233 2.7495-2.7495v-29.001c-.005-1.5165-1.233-2.7446-2.7495-2.7495z" fill="#000" fill-rule="nonzero" opacity=".2"/>
    <rect fill="#117E43" fill-rule="nonzero" x="3" y="19.5" width="33" height="33" rx="2.7495"/>
    <path d="M11.5155 44.937l5.784-8.9625L12 27.0615h4.263l2.892 5.7c.267.5415.45.9435.549 1.209h.0375c.19-.432.39-.8515.6-1.2585l3.0915-5.6475h3.9135L21.912 35.925l5.5725 9.012h-4.164L19.98 38.6805a5.25 5.25 0 01-.399-.8355h-.0495a3.957 3.957 0 01-.387.81l-3.4395 6.282h-4.1895z" fill="#FFF" fill-rule="nonzero"/>
    <path d="M64.7505 6H43.5v15h24V8.7495C67.5 7.231 66.269 6 64.7505 6z" fill="#33C481" fill-rule="nonzero"/>
    <path fill="#107C41" fill-rule="nonzero" d="M43.5 36h24v15h-24z"/>
  </g>
</svg>
