<svg width="72" height="72" viewBox="0 0 72 72" fill="none" xmlns="http://www.w3.org/2000/svg">
<g clip-path="url(#clip0_644_3360)">
<path d="M43.5 34.5L18 30V63.2505C18 64.769 19.231 66 20.7495 66H64.7505C66.269 66 67.5 64.769 67.5 63.2505V51L43.5 34.5Z" fill="#313131"/>
<path d="M43.5 6H20.7495C19.231 6 18 7.231 18 8.7495V21L43.5 36L57 40.5L67.5 36V21L43.5 6Z" fill="#6B6B6B"/>
<path d="M18 21H43.5V36H18V21Z" fill="#505050"/>
<path opacity="0.1" d="M36.2505 18H18V55.5H36.2505C37.767 55.495 38.9951 54.267 39 52.7505V20.7495C38.995 19.233 37.767 18.0049 36.2505 18Z" fill="black"/>
<path opacity="0.2" d="M34.7505 19.5H18V57H34.7505C36.267 56.995 37.4951 55.767 37.5 54.2505V22.2495C37.495 20.733 36.267 19.5049 34.7505 19.5Z" fill="black"/>
<path opacity="0.2" d="M34.7505 19.5H18V54H34.7505C36.267 53.995 37.4951 52.767 37.5 51.2505V22.2495C37.495 20.733 36.267 19.5049 34.7505 19.5Z" fill="black"/>
<path opacity="0.2" d="M33.2505 19.5H18V54H33.2505C34.767 53.995 35.9951 52.767 36 51.2505V22.2495C35.995 20.733 34.767 19.5049 33.2505 19.5Z" fill="black"/>
<path d="M33.2505 19.5H5.7495C4.23099 19.5 3 20.731 3 22.2495V49.7505C3 51.269 4.23099 52.5 5.7495 52.5H33.2505C34.769 52.5 36 51.269 36 49.7505V22.2495C36 20.731 34.769 19.5 33.2505 19.5Z" fill="#626262"/>
<path d="M11.5155 44.937L17.2995 35.9745L12 27.0615H16.263L19.155 32.7615C19.422 33.303 19.605 33.705 19.704 33.9705H19.7415C19.9315 33.5385 20.1315 33.119 20.3415 32.712L23.433 27.0645H27.3465L21.912 35.925L27.4845 44.937H23.3205L19.98 38.6805C19.8227 38.4143 19.6891 38.1347 19.581 37.845H19.5315C19.4336 38.1288 19.3038 38.4006 19.1445 38.655L15.705 44.937H11.5155Z" fill="white"/>
<path d="M64.7505 6H43.5V21H67.5V8.7495C67.5 7.231 66.269 6 64.7505 6Z" fill="#7B7B7B"/>
<path d="M43.5 36H67.5V51H43.5V36Z" fill="#636363"/>
</g>
<defs>
<clipPath id="clip0_644_3360">
<rect width="72" height="72" fill="white"/>
</clipPath>
</defs>
</svg>
